# xmcd CD database file
#
# Track frame offsets:
#	150
#	15373
#	34660
#	49896
#
# Disc length: 921 seconds
#
# Revision: 0
# Processed by: cddbd v1.5.1PL2 Copyright (c) Steve Scherf et al.
# Submitted via: CDex 1.51
#
DISCID=25039704
DTITLE=高取ヒデアキ - Trust yourself「キン肉マンII世 ULTIMATE MUSCLE 2」
DYEAR=2006
DGENRE=アニメ
TTITLE0=Trust yourself
TTITLE1=I go my way
TTITLE2=Trust yourself(オリジナル・カラオケ)
TTITLE3=I go my way(オリジナル・カラオケ)
EXTD=YEAR: 2006
EXTT0=
EXTT1=
EXTT2=
EXTT3=
PLAYORDER=
